<svg xmlns="http://www.w3.org/2000/svg" width="300" height="250" viewBox="0 0 4628 1000">
    <path d="M1276 1022Q1183 1000 1115 955Q1048 920 1008 851Q989 799 970 693Q951 624 938 531Q937 365 986 268Q1033 165 1130 108Q1192 52 1285 69Q1383 49 1461 90Q1530 142 1545 210Q1584 273 1614 359Q1620 418 1617 535Q1615 658 1576 792Q1526 880 1470 939Q1395 997 1271 1003M1297 890Q1389 892 1432 802Q1485 712 1463 545Q1462 448 1460 346Q1446 290 1403 244Q1363 178 1299 180Q1203 177 1141 268Q1090 372 1088 529Q1108 609 1109 683Q1148 766 1189 821Q1225 871 1273 873M1881 1014Q1843 1014 1816 986Q1788 958 1787 917Q1786 886 1801 861Q1816 836 1840 821Q1863 806 1890 806Q1935 806 1959 835Q1983 864 1983 903Q1985 934 1970 959Q1956 984 1932 999Q1908 1014 1881 1014M2499 999Q2422 1023 2363 989Q2304 989 2261 946Q2213 915 2184 869Q2160 845 2163 784Q2177 710 2183 684Q2218 614 2249 600Q2302 553 2399 514Q2398 498 2462 563Q2413 574 2396 621Q2357 652 2331 693Q2293 706 2312 746Q2315 819 2314 834Q2333 884 2380 883Q2437 900 2485 918Q2549 916 2578 889Q2607 892 2627 865Q2653 833 2672 768Q2667 742 2630 714Q2605 661 2579 630Q2541 607 2467 598Q2424 575 2387 535Q2324 528 2300 465Q2243 455 2221 408Q2196 339 2210 298Q2209 201 2252 148Q2286 104 2339 79Q2421 53 2503 66Q2564 46 2622 91Q2686 101 2722 150Q2772 201 2778 259Q2760 329 2734 359Q2730 429 2689 449Q2645 495 2560 539Q2562 542 2486 480Q2577 441 2610 389Q2626 330 2641 299Q2631 235 2605 185Q2564 153 2481 151Q2413 173 2370 181Q2346 209 2349 285Q2345 314 2369 364Q2376 405 2419 431Q2476 460 2509 490Q2558 515 2625 547Q2678 551 2717 601Q2746 633 2787 660Q2793 696 2813 747Q2811 837 2753 909Q2724 969 2634 976Q2585 997 2486 1023M3015 825Q3011 832 2977 760Q3003 706 3046 639Q3048 604 3093 561Q3091 488 3114 459Q3118 442 3177 363Q3155 341 3195 250Q3199 266 3241 151Q3264 169 3293 66Q3310 63 3341 47Q3354 63 3429 97Q3407 170 3401 188Q3383 255 3365 275Q3350 315 3329 357Q3313 391 3276 440Q3255 497 3251 539Q3228 579 3191 604Q3211 624 3135 718Q3135 696 3718 700Q3721 694 3697 807Q3701 805 3034 825M3435 987Q3419 991 3414 691Q3417 709 3446 411Q3428 411 3562 388Q3561 389 3563 1005Q3559 1007 3432 1012"></path>
</svg>