<svg xmlns="http://www.w3.org/2000/svg" width="300" height="250" viewBox="0 0 4628 1000">
    <path d="M604 990Q587 990 590 910Q614 917 641 899Q662 923 693 895Q778 925 842 881Q913 878 963 836Q989 798 1004 749Q984 689 970 655Q965 617 920 600Q872 555 775 584Q795 560 732 572Q737 597 707 501Q719 472 754 462Q798 453 828 437Q885 434 921 396Q960 349 945 305Q960 223 921 210Q865 164 817 186Q752 184 709 203Q640 221 613 227Q631 223 578 145Q580 141 624 126Q678 102 715 83Q761 46 834 69Q907 52 950 99Q1030 120 1066 147Q1085 211 1100 280Q1085 328 1058 374Q1049 444 986 456Q956 508 882 508Q895 526 876 488Q965 512 1035 523Q1078 559 1107 612Q1138 663 1141 731Q1155 789 1087 854Q1054 923 962 966Q866 1002 725 1002Q705 1025 653 1018Q633 990 602 1004M1523 1007Q1509 1004 1482 999Q1464 1005 1450 1000Q1459 991 1460 898Q1468 923 1486 919Q1492 903 1502 901Q1611 921 1667 868Q1766 858 1812 791Q1858 733 1858 669Q1839 605 1814 548Q1768 508 1661 505Q1624 504 1582 521Q1544 523 1494 561Q1499 540 1451 537Q1446 526 1504 79Q1485 61 1982 84Q1966 62 1964 185Q1963 207 1590 205Q1608 185 1590 424Q1613 436 1642 405Q1699 406 1733 405Q1852 420 1919 493Q2006 557 1987 682Q2005 725 1972 785Q1947 841 1866 915Q1826 940 1738 998Q1636 1008 1525 1005M2310 1014Q2272 1014 2245 986Q2217 958 2216 917Q2215 886 2230 861Q2245 836 2269 821Q2292 806 2319 806Q2364 806 2388 835Q2412 864 2412 903Q2414 934 2399 959Q2385 984 2361 999Q2337 1014 2310 1014M2584 388Q2596 287 2616 206Q2660 132 2745 106Q2805 70 2910 47Q3036 72 3089 120Q3157 168 3191 229Q3225 306 3240 430Q3224 536 3196 607Q3178 700 3128 796Q3072 853 2983 931Q2938 974 2841 1034Q2768 1073 2700 1080Q2716 1083 2671 998Q2748 952 2830 914Q2916 838 2975 787Q3033 712 3045 637Q3092 557 3091 492Q3091 378 3062 322Q3059 258 3002 198Q2962 169 2893 171Q2838 154 2807 178Q2769 202 2742 248Q2721 293 2728 358Q2742 451 2782 504Q2807 580 2885 580Q2933 574 2935 569Q2972 547 2974 559Q2989 560 3007 620Q2992 650 2962 672Q2901 695 2835 669Q2751 670 2709 653Q2652 611 2609 528Q2579 483 2581 406M3455 380Q3456 308 3476 232Q3535 130 3610 87Q3682 67 3783 50Q3894 47 3946 95Q4030 146 4067 244Q4081 312 4105 411Q4086 510 4074 627Q4035 705 3985 798Q3926 880 3865 933Q3773 977 3699 1032Q3627 1044 3572 1067Q3575 1064 3513 996Q3608 947 3679 921Q3756 846 3817 785Q3866 711 3898 637Q3924 558 3932 490Q3948 400 3920 323Q3900 254 3880 193Q3817 176 3749 151Q3718 171 3661 197Q3623 227 3624 267Q3596 293 3580 361Q3599 447 3641 506Q3667 554 3741 579Q3786 556 3792 570Q3815 548 3827 554Q3849 532 3882 622Q3867 650 3823 669Q3775 666 3690 672Q3613 694 3570 635Q3513 607 3469 528Q3457 463 3439 407" fill="currentColor"></path>
</svg>
