<svg xmlns="http://www.w3.org/2000/svg" width="300" height="250" viewBox="0 0 4628 1000">
    <path d="M602 1010Q585 1012 608 910Q610 897 653 921Q662 896 708 901Q780 916 865 902Q928 873 969 811Q986 797 986 726Q985 698 981 638Q946 599 912 571Q870 575 779 558Q777 561 733 593Q714 590 690 495Q738 488 767 464Q797 457 822 437Q871 415 910 396Q956 353 959 287Q959 222 901 191Q881 183 817 182Q734 185 707 183Q662 207 626 233Q631 244 571 142Q577 141 636 118Q675 76 732 65Q778 68 833 52Q907 68 970 92Q1018 121 1051 172Q1102 196 1104 268Q1088 343 1059 372Q1033 438 998 471Q935 514 896 510Q892 529 879 514Q978 493 1021 521Q1074 577 1105 625Q1157 679 1135 712Q1157 808 1086 878Q1033 924 945 982Q851 1002 724 1018Q686 1020 668 997Q617 991 590 992M1437 990Q1437 1005 1415 940Q1459 881 1532 844Q1576 800 1635 720Q1701 664 1730 593Q1789 533 1818 470Q1845 423 1823 370Q1840 282 1782 216Q1760 176 1684 195Q1605 174 1551 196Q1511 242 1477 265Q1465 261 1422 178Q1425 152 1483 140Q1509 90 1565 89Q1622 55 1708 71Q1787 57 1855 108Q1938 133 1948 190Q1994 258 1979 361Q1997 435 1953 547Q1891 624 1804 729Q1726 822 1626 879Q1627 898 2014 884Q2018 870 2029 985Q2034 988 1436 1010M2310 1014Q2272 1014 2245 986Q2217 958 2216 917Q2215 886 2230 861Q2245 836 2269 821Q2292 806 2319 806Q2364 806 2388 835Q2412 864 2412 903Q2414 934 2399 959Q2385 984 2361 999Q2337 1014 2310 1014M2904 999Q2831 1018 2765 958Q2679 915 2656 852Q2613 800 2596 712Q2583 629 2567 512Q2580 372 2612 270Q2681 186 2740 107Q2817 66 2931 49Q3010 71 3089 83Q3136 119 3193 203Q3212 255 3247 340Q3245 421 3266 538Q3247 679 3222 793Q3158 900 3082 955Q3019 1024 2916 1003M2923 867Q3020 869 3063 806Q3091 715 3093 544Q3109 426 3094 364Q3072 271 3011 226Q2989 179 2906 204Q2830 204 2786 282Q2740 370 2723 532Q2719 625 2761 686Q2759 787 2800 841Q2840 864 2923 870M3703 1011Q3723 994 3720 221Q3669 236 3639 245Q3606 246 3583 259Q3567 278 3556 171Q3584 161 3632 142Q3667 149 3687 115Q3719 93 3743 82Q3777 58 3784 51Q3806 45 3855 63Q3867 77 3851 985Q3876 991 3707 1012" fill="currentColor"></path>
</svg>
