<svg xmlns="http://www.w3.org/2000/svg" width="300" height="250" viewBox="0 0 4628 1000">
    <path d="M1221 992Q1220 1013 1241 241Q1201 249 1169 239Q1120 264 1100 270Q1083 271 1080 170Q1095 161 1132 148Q1184 131 1202 129Q1255 120 1262 94Q1285 62 1323 67Q1307 51 1367 56Q1381 63 1372 1008Q1386 1014 1239 992M1881 1014Q1843 1014 1816 986Q1788 958 1787 917Q1786 886 1801 861Q1816 836 1840 821Q1863 806 1890 806Q1935 806 1959 835Q1983 864 1983 903Q1985 934 1970 959Q1956 984 1932 999Q1908 1014 1881 1014M2164 643Q2150 539 2201 473Q2230 388 2264 296Q2318 240 2384 185Q2445 129 2540 89Q2596 41 2663 46Q2676 47 2698 134Q2616 156 2537 209Q2466 254 2421 321Q2370 387 2337 438Q2307 528 2310 578Q2308 681 2334 740Q2336 834 2392 880Q2416 903 2505 901Q2543 923 2597 865Q2635 844 2637 788Q2673 741 2676 692Q2654 635 2633 594Q2618 525 2604 511Q2556 518 2539 494Q2502 515 2458 506Q2430 532 2420 518Q2416 542 2394 434Q2388 447 2418 434Q2453 417 2490 395Q2508 385 2550 401Q2652 406 2686 440Q2743 480 2793 526Q2815 587 2822 682Q2816 747 2781 808Q2762 870 2720 911Q2692 968 2636 970Q2568 1015 2469 1004Q2366 996 2297 954Q2223 917 2208 820Q2169 741 2167 641M3148 1024Q3134 1020 3130 1004Q3089 999 3086 995Q3075 995 3093 904Q3099 917 3112 916Q3117 919 3135 897Q3233 899 3312 888Q3374 860 3442 788Q3485 754 3485 689Q3466 589 3437 542Q3380 512 3294 528Q3240 512 3199 540Q3168 546 3111 556Q3111 537 3093 526Q3098 540 3133 59Q3110 66 3605 78Q3608 85 3597 208Q3592 201 3242 206Q3235 181 3216 443Q3238 416 3269 429Q3306 403 3344 416Q3475 404 3545 474Q3633 559 3632 664Q3620 743 3586 785Q3556 843 3510 892Q3458 946 3354 972Q3263 1025 3167 1028" fill="currentColor"></path>
</svg>
