<svg xmlns="http://www.w3.org/2000/svg" width="300" height="250" viewBox="0 0 4628 1000">
    <path d="M859 1023Q751 1000 689 958Q643 920 585 848Q561 805 530 698Q507 613 528 532Q507 387 575 263Q619 158 679 102Q761 67 881 70Q957 64 1019 83Q1098 141 1136 188Q1178 274 1171 351Q1191 426 1189 537Q1202 656 1158 784Q1117 882 1039 938Q945 1021 858 1022M849 888Q961 892 987 788Q1050 694 1038 527Q1039 445 1018 351Q1000 270 977 230Q911 200 869 178Q772 195 730 269Q682 373 679 525Q666 628 700 690Q700 772 757 837Q800 869 870 888M1453 1014Q1415 1014 1388 986Q1360 958 1359 917Q1358 886 1373 861Q1388 836 1412 821Q1435 806 1462 806Q1507 806 1531 835Q1555 864 1555 903Q1557 934 1542 959Q1528 984 1504 999Q1480 1014 1453 1014M2046 1002Q1971 1017 1904 959Q1823 923 1782 874Q1746 787 1746 693Q1710 604 1712 507Q1709 371 1759 269Q1820 161 1882 122Q1979 65 2056 72Q2155 64 2236 103Q2278 143 2337 189Q2376 276 2387 357Q2390 441 2406 515Q2408 678 2346 794Q2298 883 2245 936Q2148 1024 2064 1004M2052 869Q2141 866 2192 778Q2235 719 2253 522Q2237 448 2216 368Q2213 288 2157 228Q2119 198 2068 198Q1957 202 1929 286Q1861 371 1863 504Q1866 607 1896 689Q1900 765 1944 839Q1985 892 2064 892M2900 1004Q2813 999 2746 963Q2694 920 2655 871Q2613 778 2581 699Q2564 626 2564 508Q2567 387 2613 284Q2678 183 2736 124Q2834 50 2919 70Q3028 64 3087 103Q3157 138 3179 211Q3216 275 3226 340Q3261 417 3249 513Q3243 661 3198 789Q3177 876 3084 964Q3006 1025 2904 1024M2905 865Q2996 891 3044 804Q3111 720 3113 541Q3112 420 3094 370Q3057 265 3030 222Q2989 179 2905 180Q2832 201 2783 267Q2722 353 2721 509Q2736 600 2737 707Q2778 785 2817 813Q2838 869 2909 884M3727 1006Q3702 985 3724 224Q3688 234 3641 244Q3624 272 3589 256Q3566 271 3554 188Q3585 183 3620 144Q3652 147 3686 137Q3720 100 3751 79Q3790 77 3809 69Q3789 68 3874 84Q3874 65 3871 1008Q3872 1013 3710 995" fill="currentColor"></path>
</svg>
