<svg xmlns="http://www.w3.org/2000/svg" id="price-6" width="300" height="250" viewBox="0 0 4628 1000"><path d="M580 1013Q579 987 546 913Q595 876 675 850Q734 774 771 742Q847 656 873 596Q933 557 940 472Q984 423 990 366Q987 284 928 237Q881 169 827 173Q767 176 694 197Q640 244 624 283Q623 280 559 195Q589 171 623 121Q646 114 724 98Q780 51 838 73Q937 52 1019 112Q1060 134 1107 193Q1142 279 1118 355Q1140 450 1072 525Q1045 644 964 731Q892 823 763 871Q785 897 1160 885Q1174 888 1157 1009Q1153 1014 579 987M1731 996Q1648 1018 1607 1012Q1550 990 1493 965Q1463 942 1431 876Q1384 831 1388 781Q1390 716 1408 689Q1428 635 1501 594Q1531 551 1625 518Q1611 518 1708 575Q1638 591 1623 620Q1584 654 1566 684Q1530 726 1539 748Q1544 817 1546 826Q1564 888 1605 904Q1666 905 1737 919Q1778 923 1791 905Q1833 885 1878 842Q1895 832 1882 770Q1879 746 1855 695Q1831 654 1806 648Q1745 628 1701 579Q1650 559 1622 536Q1551 525 1513 493Q1469 433 1446 387Q1442 359 1426 274Q1419 222 1464 148Q1501 104 1582 75Q1646 65 1726 69Q1797 52 1858 70Q1917 104 1971 145Q1984 202 1986 277Q1983 309 1968 380Q1942 431 1916 472Q1874 497 1790 547Q1792 521 1711 459Q1804 439 1821 409Q1847 350 1867 296Q1853 220 1817 180Q1781 149 1722 146Q1644 169 1620 182Q1573 215 1574 292Q1571 331 1583 350Q1622 402 1652 428Q1687 463 1754 464Q1804 491 1836 525Q1908 574 1932 580Q1973 616 1994 653Q2040 720 2039 755Q2028 853 1982 909Q1939 963 1887 975Q1812 1000 1716 1019M2310 1014Q2272 1014 2245 986Q2217 958 2216 917Q2215 886 2230 861Q2245 836 2269 821Q2292 806 2319 806Q2364 806 2388 835Q2412 864 2412 903Q2414 934 2399 959Q2385 984 2361 999Q2337 1014 2310 1014M2900 999Q2809 1001 2760 958Q2683 917 2662 875Q2599 804 2601 697Q2567 613 2585 510Q2570 366 2614 261Q2679 161 2752 127Q2817 64 2920 72Q3028 68 3074 82Q3133 118 3194 204Q3230 268 3242 352Q3244 422 3264 539Q3244 686 3205 792Q3153 880 3094 960Q3018 1001 2918 1018M2927 872Q3018 892 3065 786Q3091 699 3092 528Q3095 446 3088 349Q3051 293 3014 247Q2972 200 2927 197Q2836 179 2763 267Q2722 372 2740 529Q2718 624 2759 686Q2762 792 2799 842Q2860 868 2927 888M3708 994Q3721 1008 3720 224Q3671 257 3635 259Q3602 245 3585 271Q3587 274 3569 184Q3579 181 3617 143Q3672 154 3705 133Q3723 112 3744 82Q3788 85 3793 69Q3809 47 3856 81Q3854 84 3874 988Q3853 992 3707 1007"></path></svg>